<?xml version="1.0" encoding="utf-8"?>
<!-- Generator: Adobe Illustrator 28.3.0, SVG Export Plug-In . SVG Version: 6.00 Build 0)  -->
<svg version="1.1" id="レイヤー_1" xmlns="http://www.w3.org/2000/svg" xmlns:xlink="http://www.w3.org/1999/xlink" x="0px"
	 y="0px" viewBox="0 0 114.6 114.6" style="enable-background:new 0 0 114.6 114.6;" xml:space="preserve">
<style type="text/css">
	.st0{fill-rule:evenodd;clip-rule:evenodd;fill:#FFFFFF;}
	.st1{fill-rule:evenodd;clip-rule:evenodd;fill:#769B72;}
</style>
<circle class="st0" cx="57.3" cy="57.3" r="57.3"/>
<path class="st1" d="M49.5,27.8c-1.5-1.6-4-1.7-5.7-0.2c-1.6,1.5-1.7,4-0.2,5.7c0.1,0.1,0.1,0.1,0.2,0.2l23.8,23.8L43.8,81.1
	c-1.6,1.5-1.7,4-0.2,5.7c1.5,1.6,4,1.7,5.7,0.2c0.1-0.1,0.1-0.1,0.2-0.2l26.7-26.7c1.6-1.6,1.6-4.1,0-5.7
	C76.1,54.5,49.5,27.8,49.5,27.8z"/>
</svg>
