<?xml version="1.0" encoding="utf-8"?>
<!-- Generator: Adobe Illustrator 28.3.0, SVG Export Plug-In . SVG Version: 6.00 Build 0)  -->
<svg version="1.1" id="レイヤー_1" xmlns="http://www.w3.org/2000/svg" xmlns:xlink="http://www.w3.org/1999/xlink" x="0px"
	 y="0px" viewBox="0 0 477.3 103.3" style="enable-background:new 0 0 477.3 103.3;" xml:space="preserve">
<g>
	<path d="M61.5,9C43.5,8.5,18.3,9.5,0,9.5v93.6h26.2V32.3c0,0,23.3-0.8,31.7,0.2c7.9,0.9,10.8,5.8,11.1,16c0.2,11.6,0,17.7,0,54.6
		h26.2c0,0,0.3-42.2,0-56.9C94.8,20.1,85.7,9.6,61.5,9z"/>
	<path d="M182.7,8.7c-25.9,0-47,21.2-47,47.3s21.1,47.3,47,47.3s47-21.2,47-47.3S208.6,8.7,182.7,8.7z M182.7,80.7
		c-13.6,0-24.6-11.1-24.6-24.8s11-24.8,24.6-24.8c13.6,0,24.6,11.1,24.6,24.8C207.3,69.7,196.3,80.7,182.7,80.7z"/>
	<path d="M477.3,56c0-26.1-21.1-47.3-47-47.3s-47,21.2-47,47.3c0,15.3,7,28.4,17.9,37.1c7.6,6,18.2,10.2,32.4,10.2
		c6.9,0,24.8-1.9,37.7-16.2l-10.6-14.2c-4.5,4-15.8,9.6-24.8,9.6c-11.4,0-18.3-2.2-23.3-6.9c-3.1-2.8-5.3-7.1-6.3-12.4h70.3
		C477,60.8,477.3,58.5,477.3,56z M406.5,47.4c2.6-11.1,10.4-19.3,23.7-19.3c13.9,0,21.2,8.8,23.6,19.3H406.5z"/>
	<path d="M318.7,0h-24.5v26.3H269v23h25.2v27.3h24.5V49.3h25.2v-23h-25.2V0z"/>
</g>
</svg>
